<?xml version="1.0" encoding="UTF-8"?>
<svg id="Layer_2" data-name="Layer 2" xmlns="http://www.w3.org/2000/svg" xmlns:xlink="http://www.w3.org/1999/xlink" viewBox="0 0 983.02 789.37">
  <defs>
    <style>
      .cls-1 {
        fill: url(#Degradado_sin_nombre_169-2);
      }

      .cls-2 {
        fill: url(#Degradado_sin_nombre_169-5);
      }

      .cls-3 {
        fill: url(#Degradado_sin_nombre_169);
        opacity: .43;
      }

      .cls-4 {
        fill: url(#Degradado_sin_nombre_169-6);
      }

      .cls-5 {
        fill: url(#Degradado_sin_nombre_169-3);
      }

      .cls-6 {
        fill: url(#Degradado_sin_nombre_169-4);
      }

      .cls-7 {
        fill: url(#linear-gradient);
      }
    </style>
    <linearGradient id="Degradado_sin_nombre_169" data-name="Degradado sin nombre 169" x1="243.63" y1="281.39" x2="431.79" y2="281.39" gradientUnits="userSpaceOnUse">
      <stop offset="0" stop-color="#a66200"/>
      <stop offset=".29" stop-color="#ffd30b"/>
      <stop offset=".32" stop-color="#ffd515"/>
      <stop offset=".36" stop-color="#ffda31"/>
      <stop offset=".42" stop-color="#ffe35f"/>
      <stop offset=".49" stop-color="#ffef9d"/>
      <stop offset=".49" stop-color="#fff09f"/>
      <stop offset=".54" stop-color="#ffe877"/>
      <stop offset=".66" stop-color="#ffd515"/>
      <stop offset=".67" stop-color="#ffd30b"/>
      <stop offset=".73" stop-color="#f6c809"/>
      <stop offset=".82" stop-color="#e0ac07"/>
      <stop offset=".93" stop-color="#bc7f02"/>
      <stop offset="1" stop-color="#a66200"/>
    </linearGradient>
    <linearGradient id="linear-gradient" x1="0" y1="591.92" x2="502.89" y2="591.92" gradientUnits="userSpaceOnUse">
      <stop offset="0" stop-color="#e3af07"/>
      <stop offset=".29" stop-color="#ffd30b"/>
      <stop offset=".32" stop-color="#ffd515"/>
      <stop offset=".36" stop-color="#ffda31"/>
      <stop offset=".42" stop-color="#ffe35f"/>
      <stop offset=".49" stop-color="#ffef9d"/>
      <stop offset=".49" stop-color="#fff09f"/>
      <stop offset=".54" stop-color="#ffe877"/>
      <stop offset=".66" stop-color="#ffd515"/>
      <stop offset=".67" stop-color="#ffd30b"/>
      <stop offset=".73" stop-color="#f6c809"/>
      <stop offset=".82" stop-color="#e0ac07"/>
      <stop offset=".93" stop-color="#bc7f02"/>
      <stop offset="1" stop-color="#a66200"/>
    </linearGradient>
    <linearGradient id="Degradado_sin_nombre_169-2" data-name="Degradado sin nombre 169" x1="484.01" y1="494.72" x2="580" y2="494.72" xlink:href="#Degradado_sin_nombre_169"/>
    <linearGradient id="Degradado_sin_nombre_169-3" data-name="Degradado sin nombre 169" x1="501.1" y1="372.1" x2="983.02" y2="372.1" xlink:href="#Degradado_sin_nombre_169"/>
    <linearGradient id="Degradado_sin_nombre_169-4" data-name="Degradado sin nombre 169" x1="423.26" y1="165.26" x2="948.9" y2="165.26" xlink:href="#Degradado_sin_nombre_169"/>
    <linearGradient id="Degradado_sin_nombre_169-5" data-name="Degradado sin nombre 169" x1="610.21" y1="695.68" x2="831.62" y2="695.68" xlink:href="#Degradado_sin_nombre_169"/>
    <linearGradient id="Degradado_sin_nombre_169-6" data-name="Degradado sin nombre 169" x1="511.76" y1="432.55" x2="892.8" y2="432.55" xlink:href="#Degradado_sin_nombre_169"/>
  </defs>
  <g id="Layer_1-2" data-name="Layer 1">
    <g>
      <path class="cls-3" d="M244.14,340.12c2.83-7.77,24.36-63.94,85.3-85.3,49.66-17.4,92.4-.08,102.35,4.26-5.46-6.53-12.44-13.28-21.32-19.19-38.62-25.71-83.65-15.91-95.96-12.79-8.85,3.31-34.88,14.32-53.31,42.65-19.89,30.57-17.96,61.34-17.06,70.37Z"/>
      <path class="cls-7" d="M401.25,481.89c6.2-2.15,10.33-7.55,13.99-13.03,11.04-17.02,32.14-49.83,41.1-63.79,1.54-2.37,2.88-4.63,3.89-6.75.54-1.22.7-2.06.48-2.64-.62-1.29-3.53-1.22-5.3-1.19-46.9,1.4-172.41,4.93-202.37,5.86-6.23.22-10.71.16-16.47,3.13-39.44,17.47-76.75,60.79-76.14,107.22-1.27,58.37,46.8,117.56,108.63,118.62,34.5,2.54,69.15,4.45,103.62,6.77,12.82.48,30.95,3.69,34.47,16.38,4.07,20.77-29.01,27.17-43.94,31.74-28.52,7.81-57.15,13.88-87.11,18.34-32.14,4.91-59.59,6.36-89.64,8.35-28.53,2.59-59.07-1.89-86.1-14.58-19.01-8.72-35.7-20.66-49.9-35.4-9.38-9.87-14.59-17.07-18-31.05-9.89-37.69,1.63-77.13,26.03-105.28.98-1.29.7-1.68-.64-.74-34.25,25.48-66.32,77.32-55.83,122.61,6.39,38.55,28.64,77.65,57.87,102.75,17.21,15.65,36.02,22.03,58.38,28.58,46.06,14.09,92.51,12.62,138.32,9.52,31.97-1.62,59.99-2.04,92.85-1.49,21.34.32,44.33,1.95,64.9-3.82,116.61-35.11,118.53-193.58,3.01-231.41-15.13-4.56-31.05-5.08-46.73-5.28-27.7-.7-55.45-.39-83.12-1.72-11.94-.94-24.76-5.26-31.4-15.73-7.85-11.44-3.39-28.71,6.96-36.68,9.88-7.99,23.11-7.14,35.17-7.29,26.77,0,53.64,0,80.4,0,7.37-.12,15.67.34,22.35-1.92l.27-.1Z"/>
      <path class="cls-1" d="M484.04,396.63v172.72l21.32,23.46,74.63-49.05v-147.14s-97.95,2-95.96,0Z"/>
      <path class="cls-5" d="M511.76,609.87c4.35,13.26,9.13,33.18,8.53,57.57-.84,34.33-11.9,60.49-19.19,74.63,80.86-48.89,231.04-155.34,339.05-347.58,62.1-110.52,90.58-214.36,104.49-290.01,12.79,12.08,25.59,24.17,38.38,36.25-8.53-46.2-17.06-92.4-25.59-138.61-3.64,23.18-9.94,55.81-21.32,93.83-40.73,136-111.86,224.79-159.93,283.61-88.14,107.85-184.88,181.39-264.42,230.3Z"/>
      <path class="cls-6" d="M423.26,259.09c5.07-5.19,65.24-64.78,147.14-49.05,51.49,9.89,82.16,43.92,91.69,55.44.96,2.36,2.13,6.07,2.13,10.66,0,2.88-.46,6.28-2.13,10.66-2.92,7.65-11.58,23.62-24.52,43.71,14.57-11.02,29.14-22.03,43.71-33.05,33.41-17.06,66.82-34.12,100.22-51.18,17.68-8.76,40.91-22.75,63.97-44.78,15.21-14.54,26.68-29.07,35.18-41.58,14.47-19.1,31.68-45.75,45.85-79.96,12.2-29.46,18.75-58.47,22.39-79.96-6.9,11.75-19.2,31.58-39.45,47.98-19.91,16.12-39.43,24.44-52.24,28.79,17.06,1.42,34.12,2.84,51.18,4.26-5.19,11.39-12.92,25.29-24.52,39.45-21.24,25.94-45.29,40.37-60.77,47.98-12.26,3.5-28.59,6.88-47.98,7.46-16.27.49-30.39-1.12-41.58-3.2-5.27-6.77-58.7-72.97-146.07-69.3-71.1,2.98-129.43,50.76-152.47,105.55-8.15,19.38-10.85,37.19-11.73,50.11Z"/>
      <polyline class="cls-2" points="612.45 663.73 714.34 786.85 831.62 788.99 681.01 602.37 610.21 665.54"/>
      <path class="cls-4" d="M511.76,609.87c60.48-36.49,139.19-92.37,217.5-174.86,78.46-82.65,130.23-164.31,163.54-226.69-22.4,63.03-64.1,156.74-142.22,252.28-82.35,100.72-171.13,161.83-230.3,196.18-.32-9.31-1.48-20.15-4.26-31.99-1.26-5.36-2.72-10.34-4.26-14.93Z"/>
    </g>
  </g>
</svg>